HIERARCHY
ROOT joint_Root
{
	OFFSET 0.0 0.0 0.0
	CHANNELS 6 Xposition Yposition Zposition Zrotation Xrotation Yrotation 
	JOINT Hips
	{
		OFFSET -17.1583 93.1646 452.98
		CHANNELS 6 Xposition Yposition Zposition Zrotation Xrotation Yrotation 
		JOINT Spine
		{
			OFFSET 15.7357 0.0 0.0
			CHANNELS 6 Xposition Yposition Zposition Zrotation Xrotation Yrotation 
			JOINT Chest
			{
				OFFSET 8.98455 -0.406207 0.0
				CHANNELS 6 Xposition Yposition Zposition Zrotation Xrotation Yrotation 
				JOINT Neck
				{
					OFFSET 16.3773 0.0 0.0
					CHANNELS 6 Xposition Yposition Zposition Zrotation Xrotation Yrotation 
					JOINT Head
					{
						OFFSET 6.45672 0.0 0.0
						CHANNELS 6 Xposition Yposition Zposition Zrotation Xrotation Yrotation 
						End Site
						{
							OFFSET 0.0 0.0 0.0
						}
					}
				}
				JOINT Shoulder_L
				{
					OFFSET 12.9942 -0.242716 4.98039
					CHANNELS 6 Xposition Yposition Zposition Zrotation Xrotation Yrotation 
					JOINT UpperArm_L
					{
						OFFSET 5.34809 0.0 0.0
						CHANNELS 6 Xposition Yposition Zposition Zrotation Xrotation Yrotation 
						JOINT LowerArm_L
						{
							OFFSET 24.3286 1.87007e-05 0.0
							CHANNELS 6 Xposition Yposition Zposition Zrotation Xrotation Yrotation 
							JOINT Hand_L
							{
								OFFSET 22.2916 0.0 0.0
								CHANNELS 6 Xposition Yposition Zposition Zrotation Xrotation Yrotation 
								End Site
								{
									OFFSET 0.0 0.0 0.0
								}
							}
						}
					}
				}
				JOINT Shoulder_R
				{
					OFFSET 12.9945 -0.242716 -4.98039
					CHANNELS 6 Xposition Yposition Zposition Zrotation Xrotation Yrotation 
					JOINT UpperArm_R
					{
						OFFSET -5.34813 0.0 0.0
						CHANNELS 6 Xposition Yposition Zposition Zrotation Xrotation Yrotation 
						JOINT LowerArm_R
						{
							OFFSET -24.3289 0.000322201 0.0
							CHANNELS 6 Xposition Yposition Zposition Zrotation Xrotation Yrotation 
							JOINT Hand_R
							{
								OFFSET -22.2915 -0.000108084 0.0
								CHANNELS 6 Xposition Yposition Zposition Zrotation Xrotation Yrotation 
								End Site
								{
									OFFSET 0.0 0.0 0.0
								}
							}
						}
					}
				}
			}
		}
		JOINT UpperLeg_L
		{
			OFFSET -2.19248 -6.46944 0.0
			CHANNELS 6 Xposition Yposition Zposition Zrotation Xrotation Yrotation 
			JOINT LowerLeg_L
			{
				OFFSET 39.0811 0.0 -1.23785e-05
				CHANNELS 6 Xposition Yposition Zposition Zrotation Xrotation Yrotation 
				JOINT Foot_L
				{
					OFFSET 40.9854 0.0 -1.26872e-05
					CHANNELS 6 Xposition Yposition Zposition Zrotation Xrotation Yrotation 
					JOINT Toes_L
					{
						OFFSET 11.7543 0.0 0.0
						CHANNELS 6 Xposition Yposition Zposition Zrotation Xrotation Yrotation 
						End Site
						{
							OFFSET 0.0 0.0 0.0
						}
					}
				}
			}
		}
		JOINT UpperLeg_R
		{
			OFFSET -2.19251 6.46944 0.0
			CHANNELS 6 Xposition Yposition Zposition Zrotation Xrotation Yrotation 
			JOINT LowerLeg_R
			{
				OFFSET -39.0811 -0.00228153 -0.0401928
				CHANNELS 6 Xposition Yposition Zposition Zrotation Xrotation Yrotation 
				JOINT Foot_R
				{
					OFFSET -40.9854 0.0 0.0
					CHANNELS 6 Xposition Yposition Zposition Zrotation Xrotation Yrotation 
					JOINT Toes_R
					{
						OFFSET -11.7543 0.0 0.0
						CHANNELS 6 Xposition Yposition Zposition Zrotation Xrotation Yrotation 
						End Site
						{
							OFFSET 0.0 0.0 0.0
						}
					}
				}
			}
		}
	}
}
MOTION
Frames:	7
Frame Time:	0.0333333
0.000000 0.000000 0.000000 0.000000 0.000000 -0.000000 0.241749 92.524600 2.918290 86.352500 -6.130370 5.511450 15.735700 0.000005 -0.000001 101.187000 86.544100 -107.926000 8.984550 -0.406207 -0.000000 -0.841181 1.845220 -13.460000 16.377300 -0.000001 -0.000001 2.628030 -0.976413 -4.348720 6.456720 -0.000001 -0.000000 2.496520 2.559700 -13.746000 12.994200 -0.242716 4.980390 -92.763100 9.019580 -72.888800 5.348090 -0.000007 -0.000001 -56.990900 -1.517630 4.071800 24.328600 0.000019 0.000005 10.595700 26.083000 -23.048100 22.291600 -0.000001 0.000005 3.145370 4.848380 10.392300 12.994500 -0.242716 -4.980390 93.493700 -6.814570 -62.772400 -5.348130 -0.000001 -0.000004 -32.307500 -59.054500 -75.509500 -24.328900 0.000322 -0.000009 0.593959 2.598320 -12.902800 -22.291500 -0.000108 -0.000004 46.262800 5.503020 -6.655970 -2.192480 -6.469440 -0.000000 -172.328000 -8.159720 4.864490 39.081100 -0.000007 -0.000012 0.027029 -0.078035 19.104700 40.985400 -0.000006 -0.000013 0.317812 8.907480 -71.330300 11.754300 -0.000000 0.000003 -0.002807 0.206025 -8.217090 -2.192510 6.469440 -0.000001 176.819000 5.864770 -173.470000 -39.081100 -0.002282 -0.040193 -0.022685 0.112424 13.030700 -40.985400 0.000008 0.000006 -8.900810 12.200200 -67.230400 -11.754300 -0.000006 -0.000006 -0.010645 0.276066 -5.356210
0.000000 0.000000 0.000000 0.000000 0.000000 -0.000000 0.165369 92.525800 2.917000 86.353500 -6.057330 5.496810 15.735700 0.000005 -0.000001 100.756000 86.529400 -107.470000 8.984550 -0.406207 -0.000000 -0.805958 1.795740 -13.410000 16.377300 -0.000001 -0.000001 2.625660 -0.962415 -4.357420 6.456720 -0.000001 -0.000000 2.497060 2.580030 -13.736500 12.994200 -0.242716 4.980390 -92.767300 9.021750 -72.868300 5.348090 -0.000007 -0.000001 -57.105100 -1.521920 4.054230 24.328600 0.000019 0.000005 10.571900 26.163400 -22.941800 22.291600 -0.000001 0.000005 3.080730 4.849200 10.376200 12.994500 -0.242716 -4.980390 93.503300 -6.828230 -62.754900 -5.348130 -0.000001 -0.000004 -32.436900 -59.064300 -75.512100 -24.328900 0.000322 -0.000009 0.588076 2.548020 -13.023000 -22.291500 -0.000108 -0.000004 46.173400 5.500760 -6.564130 -2.192480 -6.469440 -0.000000 -172.269000 -8.176110 4.846550 39.081100 -0.000007 -0.000012 0.026336 -0.076133 19.082100 40.985400 -0.000006 -0.000013 0.273244 8.977250 -71.287900 11.754300 -0.000000 0.000003 -0.002376 0.200952 -8.423490 -2.192510 6.469440 -0.000001 176.892000 5.833620 -173.482000 -39.081100 -0.002282 -0.040193 -0.022256 0.110352 13.055700 -40.985400 0.000008 0.000006 -8.774660 12.076000 -67.297100 -11.754300 -0.000006 -0.000006 -0.010381 0.274133 -5.435310
0.000000 0.000000 0.000000 0.000000 0.000000 -0.000000 0.092141 92.524100 2.927970 86.361000 -6.016990 5.496590 15.735700 0.000005 -0.000001 100.559000 86.523600 -107.258000 8.984550 -0.406207 -0.000000 -0.792023 1.772460 -13.380900 16.377300 -0.000001 -0.000001 2.685060 -0.981262 -4.393310 6.456720 -0.000001 -0.000000 2.578760 2.575500 -13.683800 12.994200 -0.242716 4.980390 -92.759400 9.011910 -72.897100 5.348090 -0.000007 -0.000001 -57.214300 -1.530080 4.108210 24.328600 0.000019 0.000005 10.561900 26.192900 -22.900300 22.291600 -0.000001 0.000005 3.087380 4.852710 10.308400 12.994500 -0.242716 -4.980390 93.508300 -6.838920 -62.758300 -5.348130 -0.000001 -0.000004 -32.481800 -58.979400 -75.460300 -24.328900 0.000322 -0.000009 0.581429 2.511560 -13.061500 -22.291500 -0.000108 -0.000004 46.317300 5.503010 -6.655090 -2.192480 -6.469440 -0.000000 -172.246000 -8.058220 4.865340 39.081100 -0.000007 -0.000012 0.026253 -0.076001 19.056400 40.985400 -0.000006 -0.000013 0.214199 8.940090 -71.315000 11.754300 -0.000000 0.000003 -0.002564 0.203194 -8.332310 -2.192510 6.469440 -0.000001 176.937000 5.930920 -173.502000 -39.081100 -0.002282 -0.040193 -0.021449 0.106164 13.139800 -40.985400 0.000008 0.000006 -8.557490 12.090000 -67.428500 -11.754300 -0.000006 -0.000006 -0.010868 0.277683 -5.290030
0.000000 0.000000 0.000000 0.000000 0.000000 -0.000000 0.021446 92.523800 2.926790 86.345600 -5.982550 5.416060 15.735700 0.000005 -0.000001 100.615000 86.540900 -107.306000 8.984550 -0.406207 -0.000000 -0.827322 1.774300 -13.364300 16.377300 -0.000001 -0.000001 2.798570 -0.990335 -4.364500 6.456720 -0.000001 -0.000000 2.648390 2.535730 -13.651900 12.994200 -0.242716 4.980390 -92.770700 9.031490 -72.865800 5.348090 -0.000007 -0.000001 -57.287700 -1.500340 4.113110 24.328600 0.000019 0.000005 10.581300 26.154800 -22.966800 22.291600 -0.000001 0.000005 3.073020 4.848250 10.394900 12.994500 -0.242716 -4.980390 93.505000 -6.837590 -62.775600 -5.348130 -0.000001 -0.000004 -32.470200 -58.864800 -75.325800 -24.328900 0.000322 -0.000009 0.565456 2.444790 -13.050400 -22.291500 -0.000108 -0.000004 46.351800 5.502470 -6.633310 -2.192480 -6.469440 -0.000000 -172.202000 -8.008560 4.772560 39.081100 -0.000007 -0.000012 0.026384 -0.076342 19.065300 40.985400 -0.000006 -0.000013 0.154793 8.906830 -71.314700 11.754300 -0.000000 0.000003 -0.002567 0.203226 -8.330980 -2.192510 6.469440 -0.000001 177.028000 5.926780 -173.589000 -39.081100 -0.002282 -0.040193 -0.020685 0.102644 13.170300 -40.985400 0.000008 0.000006 -8.431050 12.016100 -67.452400 -11.754300 -0.000006 -0.000006 -0.010557 0.275422 -5.382570
0.000000 0.000000 0.000000 0.000000 0.000000 -0.000000 -0.049678 92.526400 2.930730 86.324500 -5.981340 5.421230 15.735700 0.000005 -0.000001 100.715000 86.516200 -107.390000 8.984550 -0.406207 -0.000000 -0.780423 1.791430 -13.333800 16.377300 -0.000001 -0.000001 2.863510 -1.013460 -4.349050 6.456720 -0.000001 -0.000000 2.634520 2.531550 -13.662600 12.994200 -0.242716 4.980390 -92.781700 9.046150 -72.827800 5.348090 -0.000007 -0.000001 -57.372900 -1.568130 4.017410 24.328600 0.000019 0.000005 10.544500 26.173800 -22.879700 22.291600 -0.000001 0.000005 2.980810 4.854580 10.272000 12.994500 -0.242716 -4.980390 93.508500 -6.828440 -62.721400 -5.348130 -0.000001 -0.000004 -32.527400 -58.757000 -75.336100 -24.328900 0.000322 -0.000009 0.569675 2.487930 -12.924100 -22.291500 -0.000108 -0.000004 46.268500 5.501120 -6.578830 -2.192480 -6.469440 -0.000000 -172.122000 -7.995650 4.819920 39.081100 -0.000007 -0.000012 0.024736 -0.071786 19.013100 40.985400 -0.000006 -0.000013 0.107430 8.955190 -71.298600 11.754300 -0.000000 0.000003 -0.002446 0.201802 -8.388920 -2.192510 6.469440 -0.000001 177.105000 5.926270 -173.582000 -39.081100 -0.002282 -0.040193 -0.020581 0.102044 13.189700 -40.985400 0.000008 0.000006 -8.355830 11.977600 -67.524900 -11.754300 -0.000006 -0.000006 -0.010623 0.275902 -5.362950
0.000000 0.000000 0.000000 0.000000 0.000000 -0.000000 -0.114982 92.524700 2.939950 86.301600 -5.952000 5.455010 15.735700 0.000005 -0.000001 100.794000 86.480100 -107.456000 8.984550 -0.406207 -0.000000 -0.710616 1.809310 -13.307000 16.377300 -0.000001 -0.000001 2.934120 -1.004710 -4.353330 6.456720 -0.000001 -0.000000 2.639330 2.540850 -13.645300 12.994200 -0.242716 4.980390 -92.799600 9.096450 -72.812700 5.348090 -0.000007 -0.000001 -57.392200 -1.403340 3.994940 24.328600 0.000019 0.000005 10.516300 25.999700 -22.950800 22.291600 -0.000001 0.000005 2.977250 4.854600 10.271700 12.994500 -0.242716 -4.980390 93.484200 -6.781240 -62.722500 -5.348130 -0.000001 -0.000004 -32.577500 -58.707600 -75.340400 -24.328900 0.000322 -0.000009 0.547599 2.413700 -12.810000 -22.291500 -0.000108 -0.000004 46.324000 5.501980 -6.613500 -2.192480 -6.469440 -0.000000 -172.043000 -7.982400 4.851910 39.081100 -0.000007 -0.000012 0.023654 -0.068586 19.028500 40.985400 -0.000006 -0.000013 0.058666 8.967710 -71.333000 11.754300 -0.000000 0.000003 -0.002672 0.204461 -8.280760 -2.192510 6.469440 -0.000001 177.157000 5.952000 -173.532000 -39.081100 -0.002282 -0.040193 -0.020930 0.103430 13.202100 -40.985400 0.000008 0.000006 -8.346760 12.003000 -67.542900 -11.754300 -0.000006 -0.000006 -0.010579 0.275581 -5.376050
0.000000 0.000000 0.000000 0.000000 0.000000 -0.000000 -0.179658 92.518600 2.930060 86.300000 -5.925280 5.414280 15.735700 0.000005 -0.000001 100.718000 86.462300 -107.380000 8.984550 -0.406207 -0.000000 -0.674106 1.804640 -13.307400 16.377300 -0.000001 -0.000001 2.943710 -0.984613 -4.341630 6.456720 -0.000001 -0.000000 2.646270 2.568180 -13.647800 12.994200 -0.242716 4.980390 -92.809700 9.138300 -72.827900 5.348090 -0.000007 -0.000001 -57.404900 -1.355890 3.990600 24.328600 0.000019 0.000005 10.593100 25.993900 -23.108700 22.291600 -0.000001 0.000005 2.955730 4.853970 10.283900 12.994500 -0.242716 -4.980390 93.482400 -6.774220 -62.710700 -5.348130 -0.000001 -0.000004 -32.619100 -58.646200 -75.261300 -24.328900 0.000322 -0.000009 0.528242 2.337220 -12.763700 -22.291500 -0.000108 -0.000004 46.282800 5.501290 -6.585400 -2.192480 -6.469440 -0.000000 -171.993000 -7.999680 4.780840 39.081100 -0.000007 -0.000012 0.022443 -0.064938 19.065500 40.985400 -0.000006 -0.000013 0.030856 9.044100 -71.305600 11.754300 -0.000000 0.000003 -0.002547 0.202998 -8.340280 -2.192510 6.469440 -0.000001 177.235000 5.971890 -173.651000 -39.081100 -0.002282 -0.040193 -0.019507 0.096200 13.355900 -40.985400 0.000008 0.000006 -8.164640 11.922900 -67.652400 -11.754300 -0.000006 -0.000006 -0.010497 0.274983 -5.400540
